<?xml version="1.0" encoding="utf-8"?><svg xmlns="http://www.w3.org/2000/svg" xmlns:xlink="http://www.w3.org/1999/xlink"><symbol viewBox="0 0 26 27" id="day" xmlns="http://www.w3.org/2000/svg"><path d="M5.72012 0C5.42767 0 5.12954 0.107144 4.9184 0.318281C4.70726 0.529418 4.60012 0.827556 4.60012 1.12V2.24H1.24012C0.947673 2.24 0.649535 2.34714 0.438398 2.55828C0.227261 2.76942 0.120117 3.06756 0.120117 3.36V7.84V25.76C0.120117 26.0524 0.227261 26.3506 0.438398 26.5617C0.649535 26.7729 0.947673 26.88 1.24012 26.88H24.7601C25.0526 26.88 25.3507 26.7729 25.5618 26.5617C25.773 26.3506 25.8801 26.0524 25.8801 25.76V7.84V3.36C25.8801 3.06756 25.773 2.76942 25.5618 2.55828C25.3507 2.34714 25.0526 2.24 24.7601 2.24H21.4001V1.12C21.4001 0.827556 21.293 0.529418 21.0818 0.318281C20.8707 0.107144 20.5726 0 20.2801 0H19.1601C18.8677 0 18.5695 0.107144 18.3584 0.318281C18.1473 0.529418 18.0401 0.827556 18.0401 1.12V2.24H7.96012V1.12C7.96012 0.827556 7.85297 0.529418 7.64184 0.318281C7.4307 0.107144 7.13256 0 6.84012 0H5.72012ZM5.72012 1.12H6.84012V4.48H5.72012V1.12ZM19.1601 1.12H20.2801V2.70594C20.2701 2.76641 20.2701 2.82812 20.2801 2.88859V4.48H19.1601V1.12ZM1.24012 3.36H4.60012V4.48C4.60012 4.77244 4.70726 5.07058 4.9184 5.28172C5.12954 5.49286 5.42767 5.6 5.72012 5.6H6.84012C7.13256 5.6 7.4307 5.49286 7.64184 5.28172C7.85297 5.07058 7.96012 4.77244 7.96012 4.48V3.36H18.0401V4.48C18.0401 4.77244 18.1473 5.07058 18.3584 5.28172C18.5695 5.49286 18.8677 5.6 19.1601 5.6H20.2801C20.5726 5.6 20.8707 5.49286 21.0818 5.28172C21.293 5.07058 21.4001 4.77244 21.4001 4.48V3.36H24.7601V7.28H1.24012V3.36ZM1.24012 8.4H24.7601V25.76H1.24012V8.4ZM9.07137 10.6323C9.0446 10.633 9.01792 10.6355 8.99152 10.64H5.16012C5.0116 10.64 4.86917 10.699 4.76415 10.804C4.65914 10.9091 4.60013 11.0515 4.60012 11.2V15.0259C4.59012 15.0864 4.59012 15.1481 4.60012 15.2086V18.9459C4.59012 19.0064 4.59012 19.0681 4.60012 19.1286V22.96C4.60013 23.1085 4.65914 23.2509 4.76415 23.356C4.86917 23.461 5.0116 23.52 5.16012 23.52H8.98605C9.04653 23.53 9.10823 23.53 9.16871 23.52H12.9061C12.9665 23.53 13.0282 23.53 13.0887 23.52H15.8001H16.8261C16.8865 23.53 16.9482 23.53 17.0087 23.52H20.8401C20.9886 23.52 21.1311 23.461 21.2361 23.356C21.3411 23.2509 21.4001 23.1085 21.4001 22.96V19.1341C21.4101 19.0736 21.4101 19.0119 21.4001 18.9514V15.2141C21.4101 15.1536 21.4101 15.0919 21.4001 15.0314V11.2C21.4001 11.0515 21.3411 10.9091 21.2361 10.804C21.1311 10.699 20.9886 10.64 20.8401 10.64H17.0142C16.9537 10.63 16.892 10.63 16.8315 10.64H13.0942C13.0337 10.63 12.972 10.63 12.9115 10.64H9.17418C9.14022 10.6343 9.1058 10.6317 9.07137 10.6323ZM5.72012 11.76H8.52012V14.56H5.72012V11.76ZM9.64012 11.76H12.4401V14.56H9.64012V11.76ZM13.5601 11.76H16.3601V14.56H13.5601V11.76ZM17.4801 11.76H20.2801V14.56H17.4801V11.76ZM5.72012 15.68H8.52012V18.48H5.72012V15.68ZM9.64012 15.68H12.4401V18.48H9.64012V15.68ZM13.5601 15.68H16.3601V18.48H13.5601V15.68ZM17.4801 15.68H20.2801V18.48H17.4801V15.68ZM5.72012 19.6H8.52012V22.4H5.72012V19.6ZM9.64012 19.6H12.4401V22.4H9.64012V19.6ZM13.5601 19.6H16.3601V22.4H15.8001H13.5601V19.6ZM17.4801 19.6H20.2801V22.4H17.4801V19.6Z"/></symbol><symbol viewBox="0 0 20 30" id="location" xmlns="http://www.w3.org/2000/svg"><path d="M9.99998 0.719971C4.73879 0.719971 0.47998 4.97879 0.47998 10.24C0.47998 14.5975 2.76132 19.2525 5.00225 22.8638C7.24317 26.4751 9.48732 29.0475 9.48732 29.0475C9.55155 29.1211 9.63086 29.18 9.71988 29.2202C9.8089 29.2604 9.90552 29.2809 10.0032 29.2804C10.1009 29.2799 10.1973 29.2584 10.2859 29.2173C10.3745 29.1762 10.4532 29.1165 10.5166 29.0422C10.5166 29.0422 12.7593 26.4206 14.999 22.7854C17.2387 19.1502 19.52 14.5017 19.52 10.24C19.52 4.97879 15.2612 0.719971 9.99998 0.719971ZM9.99998 2.07997C14.5308 2.07997 18.16 5.70916 18.16 10.24C18.16 14.0023 16.0212 18.5334 13.8409 22.0722C12.0709 24.9452 10.5988 26.7788 9.996 27.5122C9.39004 26.7879 7.92293 24.9913 6.15771 22.1466C3.97864 18.6349 1.83998 14.1104 1.83998 10.24C1.83998 5.70916 5.46917 2.07997 9.99998 2.07997ZM9.99998 5.47997C7.38507 5.47997 5.23998 7.62506 5.23998 10.24C5.23998 12.8549 7.38507 15 9.99998 15C12.6149 15 14.76 12.8549 14.76 10.24C14.76 7.62506 12.6149 5.47997 9.99998 5.47997ZM9.99998 6.83997C11.8731 6.83997 13.4 8.36688 13.4 10.24C13.4 12.1131 11.8731 13.64 9.99998 13.64C8.12689 13.64 6.59998 12.1131 6.59998 10.24C6.59998 8.36688 8.12689 6.83997 9.99998 6.83997Z"/></symbol><symbol viewBox="0 0 29 29" id="phone" xmlns="http://www.w3.org/2000/svg"><path d="M16.693 1.17812C16.5458 1.18945 16.4008 1.20984 16.258 1.25062L6.03553 4.15062C4.88686 4.47687 4.20491 5.68445 4.53116 6.83312L9.31616 23.6531C9.32522 23.7098 9.34335 23.7641 9.37053 23.8162L10.0593 26.2631C10.3855 27.4118 11.5931 28.0756 12.7418 27.7494L22.9643 24.8494C24.113 24.5231 24.7949 23.3155 24.4687 22.1669L23.798 19.8106C23.8071 19.6747 23.7686 19.541 23.6893 19.43L18.9405 2.73687C18.6958 1.87593 17.9686 1.2846 17.128 1.17812C16.9876 1.15999 16.8403 1.16679 16.693 1.17812ZM16.7837 2.31999C17.2572 2.28374 17.699 2.58734 17.8349 3.06312L22.4568 19.3756L10.2768 22.8194L5.65491 6.50687C5.50085 5.96085 5.81577 5.41031 6.36178 5.25624L16.5843 2.35624C16.6523 2.33585 16.7157 2.32453 16.7837 2.31999ZM22.1487 6.18062C21.981 6.20781 21.8337 6.30976 21.7454 6.45703C21.6593 6.60203 21.6389 6.78101 21.6955 6.94187L24.5955 17.1644C24.6862 17.4748 25.0101 17.6537 25.3205 17.5631C25.6309 17.4725 25.8099 17.1485 25.7193 16.8381L22.8193 6.61562C22.7536 6.3596 22.5225 6.18062 22.2574 6.18062C22.2393 6.18062 22.2212 6.18062 22.203 6.18062C22.1849 6.18062 22.1668 6.18062 22.1487 6.18062ZM25.4293 8.01124C25.2616 8.03843 25.1144 8.14038 25.026 8.28765C24.9399 8.43265 24.9195 8.61163 24.9762 8.77249L26.4262 13.8837C26.5168 14.1941 26.8408 14.3731 27.1512 14.2825C27.4615 14.1919 27.6405 13.8679 27.5499 13.5575L26.0999 8.44624C26.0342 8.19023 25.8031 8.01124 25.538 8.01124C25.5199 8.01124 25.5018 8.01124 25.4837 8.01124C25.4655 8.01124 25.4474 8.01124 25.4293 8.01124ZM3.78803 11.4006C3.76991 11.4052 3.75178 11.4119 3.73366 11.4187C3.57053 11.4482 3.42553 11.5456 3.33944 11.6884C3.25335 11.8311 3.23069 12.0033 3.28053 12.1619L6.18053 22.3844C6.27116 22.6948 6.59514 22.8737 6.90553 22.7831C7.21592 22.6925 7.39491 22.3685 7.30428 22.0581L4.40428 11.8356C4.33858 11.5796 4.10749 11.4006 3.84241 11.4006C3.82428 11.4006 3.80616 11.4006 3.78803 11.4006ZM1.95741 14.6812C1.93928 14.6858 1.92116 14.6926 1.90303 14.6994C1.73991 14.7288 1.59491 14.8262 1.50882 14.969C1.42272 15.1117 1.40007 15.2839 1.44991 15.4425L2.89991 20.5537C2.99053 20.8641 3.31452 21.0431 3.62491 20.9525C3.9353 20.8619 4.11428 20.5379 4.02366 20.2275L2.57366 15.1162C2.50796 14.8602 2.27686 14.6812 2.01178 14.6812C1.99366 14.6812 1.97553 14.6812 1.95741 14.6812ZM22.783 20.4994L23.3449 22.4931C23.499 23.0391 23.184 23.5897 22.638 23.7437L12.4155 26.6437C11.8695 26.7978 11.319 26.4829 11.1649 25.9369L10.603 23.9431L22.783 20.4994ZM17.0555 22.91C17.0034 22.9145 16.9445 22.9123 16.8924 22.9281C16.4687 23.0482 16.2286 23.5013 16.3487 23.925C16.4687 24.3487 16.9037 24.5888 17.3274 24.4687C17.7511 24.3487 17.9912 23.9137 17.8712 23.49C17.7669 23.1184 17.4248 22.8828 17.0555 22.91Z"/></symbol><symbol viewBox="0 0 46 46" id="verified" xmlns="http://www.w3.org/2000/svg"><path d="M46 23C46 19.655 44.099 16.735 41.324 15.26C42.082 12.372 41.343 9.162 39.09 6.909C37.407 5.226 35.19 4.388 32.971 4.388C32.22 4.388 31.469 4.484 30.739 4.676C29.265 1.901 26.345 0 23 0C19.655 0 16.735 1.901 15.26 4.676C14.529 4.484 13.779 4.388 13.028 4.388C10.809 4.388 8.592 5.226 6.909 6.909C4.656 9.162 3.917 12.371 4.675 15.26C1.901 16.735 0 19.655 0 23C0 26.345 1.901 29.265 4.676 30.74C3.918 33.628 4.657 36.838 6.91 39.091C8.593 40.774 10.81 41.612 13.029 41.612C13.78 41.612 14.531 41.516 15.261 41.324C16.735 44.099 19.655 46 23 46C26.345 46 29.265 44.099 30.74 41.324C31.471 41.516 32.221 41.612 32.972 41.612C35.191 41.612 37.408 40.774 39.091 39.091C41.344 36.838 42.083 33.629 41.325 30.74C44.099 29.265 46 26.345 46 23ZM19.714 30.985L12.436 23.707L13.85 22.293L19.714 28.157L32.15 15.722L33.564 17.136L19.714 30.985Z"/></symbol></svg>