<?xml version="1.0" encoding="utf-8"?><svg viewBox="0 0 46 46" xmlns="http://www.w3.org/2000/svg" xmlns:xlink="http://www.w3.org/1999/xlink"><style>:root>svg{display:none}:root>svg:target{display:block}</style><svg fill="none" viewBox="0 0 26 27" id="day" xmlns="http://www.w3.org/2000/svg"><path d="M5.72 0c-.292 0-.59.107-.802.318-.21.211-.318.51-.318.802v1.12H1.24c-.292 0-.59.107-.802.318-.21.211-.318.51-.318.802V25.76c0 .292.107.59.318.802.212.21.51.318.802.318h23.52c.293 0 .59-.107.802-.318.211-.211.318-.51.318-.802V3.36c0-.292-.107-.59-.318-.802a1.138 1.138 0 0 0-.802-.318H21.4V1.12c0-.292-.107-.59-.318-.802A1.138 1.138 0 0 0 20.28 0h-1.12c-.292 0-.59.107-.802.318-.21.211-.318.51-.318.802v1.12H7.96V1.12c0-.292-.107-.59-.318-.802A1.139 1.139 0 0 0 6.84 0H5.72Zm0 1.12h1.12v3.36H5.72V1.12Zm13.44 0h1.12v1.586a.56.56 0 0 0 0 .183V4.48h-1.12V1.12ZM1.24 3.36H4.6v1.12c0 .292.107.59.318.802.212.21.51.318.802.318h1.12c.293 0 .59-.107.802-.318.211-.211.318-.51.318-.802V3.36h10.08v1.12c0 .292.107.59.318.802.212.21.51.318.802.318h1.12c.293 0 .59-.107.802-.318.211-.211.318-.51.318-.802V3.36h3.36v3.92H1.24V3.36Zm0 5.04h23.52v17.36H1.24V8.4Zm7.831 2.232a.563.563 0 0 0-.08.008h-3.83a.56.56 0 0 0-.56.56v3.826a.56.56 0 0 0 0 .183v3.737a.56.56 0 0 0 0 .183v3.831a.56.56 0 0 0 .56.56h3.825c.06.01.122.01.183 0h3.737c.06.01.122.01.183 0h3.737c.06.01.122.01.183 0h3.831a.56.56 0 0 0 .56-.56v-3.826a.56.56 0 0 0 0-.183v-3.737a.56.56 0 0 0 0-.183V11.2a.56.56 0 0 0-.56-.56h-3.826a.56.56 0 0 0-.183 0h-3.737a.56.56 0 0 0-.182 0H9.174a.562.562 0 0 0-.103-.008Zm-3.35 1.128h2.8v2.8h-2.8v-2.8Zm3.92 0h2.8v2.8h-2.8v-2.8Zm3.92 0h2.8v2.8h-2.8v-2.8Zm3.92 0h2.8v2.8h-2.8v-2.8ZM5.72 15.68h2.8v2.8h-2.8v-2.8Zm3.92 0h2.8v2.8h-2.8v-2.8Zm3.92 0h2.8v2.8h-2.8v-2.8Zm3.92 0h2.8v2.8h-2.8v-2.8ZM5.72 19.6h2.8v2.8h-2.8v-2.8Zm3.92 0h2.8v2.8h-2.8v-2.8Zm3.92 0h2.8v2.8H13.56v-2.8Zm3.92 0h2.8v2.8h-2.8v-2.8Z" fill="#606571"/></svg><svg fill="none" viewBox="0 0 20 30" id="location" xmlns="http://www.w3.org/2000/svg"><path d="M10 .72a9.516 9.516 0 0 0-9.52 9.52c0 4.357 2.281 9.013 4.522 12.624 2.241 3.611 4.485 6.183 4.485 6.183a.68.68 0 0 0 1.03-.005s2.242-2.621 4.482-6.257c2.24-3.635 4.521-8.283 4.521-12.545A9.516 9.516 0 0 0 10 .72Zm0 1.36a8.13 8.13 0 0 1 8.16 8.16c0 3.762-2.139 8.293-4.32 11.832-1.77 2.873-3.241 4.707-3.844 5.44-.606-.724-2.073-2.52-3.838-5.365C3.978 18.635 1.84 14.11 1.84 10.24A8.13 8.13 0 0 1 10 2.08Zm0 3.4c-2.615 0-4.76 2.145-4.76 4.76C5.24 12.855 7.385 15 10 15c2.615 0 4.76-2.145 4.76-4.76 0-2.615-2.145-4.76-4.76-4.76Zm0 1.36c1.873 0 3.4 1.527 3.4 3.4s-1.527 3.4-3.4 3.4a3.406 3.406 0 0 1-3.4-3.4c0-1.873 1.527-3.4 3.4-3.4Z" fill="#606571"/></svg><svg fill="none" viewBox="0 0 29 29" id="phone" xmlns="http://www.w3.org/2000/svg"><path d="M16.693 1.178a2.183 2.183 0 0 0-.435.073L6.036 4.15A2.184 2.184 0 0 0 4.53 6.833l4.785 16.82c.01.057.027.111.055.163l.688 2.447a2.173 2.173 0 0 0 2.683 1.486l10.222-2.9a2.184 2.184 0 0 0 1.505-2.682l-.671-2.356a.586.586 0 0 0-.109-.381L18.941 2.737a2.163 2.163 0 0 0-1.813-1.559 2.146 2.146 0 0 0-.435 0Zm.09 1.142c.474-.036.916.267 1.052.743l4.622 16.313-12.18 3.443L5.655 6.507a1.008 1.008 0 0 1 .707-1.25l10.222-2.9a.88.88 0 0 1 .2-.037Zm5.366 3.86a.58.58 0 0 0-.454.762l2.9 10.222a.585.585 0 1 0 1.124-.326l-2.9-10.222a.58.58 0 0 0-.562-.435h-.108Zm3.28 1.831a.58.58 0 0 0-.453.761l1.45 5.112a.585.585 0 1 0 1.124-.327l-1.45-5.11a.58.58 0 0 0-.562-.436h-.109Zm-21.641 3.39a.525.525 0 0 0-.054.018.58.58 0 0 0-.453.743l2.9 10.222a.585.585 0 1 0 1.123-.326l-2.9-10.222a.58.58 0 0 0-.562-.435h-.054Zm-1.83 3.28c-.019.005-.037.012-.055.018a.58.58 0 0 0-.453.744l1.45 5.11a.585.585 0 1 0 1.124-.326l-1.45-5.11a.58.58 0 0 0-.562-.436h-.055ZM22.782 20.5l.562 1.994a1.008 1.008 0 0 1-.707 1.25l-10.223 2.9a1.008 1.008 0 0 1-1.25-.706l-.562-1.994 12.18-3.444Zm-5.728 2.411c-.052.005-.11.002-.163.018a.807.807 0 0 0-.543.997c.12.424.555.664.978.544a.788.788 0 0 0 .544-.979.787.787 0 0 0-.816-.58Z" fill="#606571"/></svg><svg fill="none" viewBox="0 0 46 46" id="verified" xmlns="http://www.w3.org/2000/svg"><path d="M46 23c0-3.345-1.901-6.265-4.676-7.74.758-2.888.019-6.098-2.234-8.351a8.622 8.622 0 0 0-6.119-2.521c-.751 0-1.502.096-2.232.288C29.265 1.901 26.345 0 23 0c-3.345 0-6.265 1.901-7.74 4.676a8.784 8.784 0 0 0-2.232-.288 8.622 8.622 0 0 0-6.119 2.521c-2.253 2.253-2.992 5.462-2.234 8.351C1.901 16.735 0 19.655 0 23c0 3.345 1.901 6.265 4.676 7.74-.758 2.888-.019 6.098 2.234 8.351a8.622 8.622 0 0 0 6.119 2.521c.751 0 1.502-.096 2.232-.288C16.735 44.099 19.655 46 23 46c3.345 0 6.265-1.901 7.74-4.676a8.784 8.784 0 0 0 2.232.288 8.622 8.622 0 0 0 6.119-2.521c2.253-2.253 2.992-5.462 2.234-8.351C44.099 29.265 46 26.345 46 23Zm-26.286 7.985-7.278-7.278 1.414-1.414 5.864 5.864L32.15 15.722l1.414 1.414-13.85 13.849Z" fill="#606571"/></svg></svg>